<svg xmlns="http://www.w3.org/2000/svg" viewBox="0 0 16 16" id="Baby-Carriage--Streamline-Font-Awesome" height="16" width="16">
  <desc>
    Baby Carriage Streamline Icon: https://streamlinehq.com
  </desc>
<!--! Font Awesome Free 6.5.2 by @fontawesome - https://fontawesome.com License - https://fontawesome.com/license/free (Icons: CC BY 4.0, Fonts: SIL OFL 1.1, Code: MIT License) Copyright 2024 Fonticons, Inc.-->
  <path d="M8 5.89450625H0.1630625c0.079625 -2.2693125 1.26175 -4.2599375 3.0288125 -5.4481875 0.4073125 -0.2725625 0.94325 -0.1316875 1.2219375 0.2695L8 5.89450625Zm3.92 -0.98c0 -1.0810625 0.8789375 -1.96 1.96 -1.96h0.98c0.5420625 0 0.98 0.4379375 0.98 0.98s-0.4379375 0.98 -0.98 0.98h-0.98v1.96c0 0.77175 -0.177625 1.537375 -0.520625 2.2509375s-0.851375 1.3628125 -1.488375 1.9079375 -1.3934375 0.98 -2.2264375 1.274 -1.7241875 0.447125 -2.6245625 0.447125 -1.7915625 -0.153125 -2.6245625 -0.447125 -1.5894375 -0.728875 -2.2264375 -1.274 -1.1423125 -1.194375 -1.488375 -1.9079375 -0.520625 -1.4791875 -0.520625 -2.2509375h11.76v-1.96Zm-9.31 7.84c1.13160625 0 1.838859375 1.225 1.27305625 2.205 -0.2626 0.454840625 -0.747853125 0.735025 -1.27305625 0.735 -1.13160625 0.00005 -1.83885 -1.22491875 -1.273090625 -2.20494375 0.26258125 -0.45485 0.7478875 -0.73505625 1.273090625 -0.73505625Zm7.35 1.47c0 -1.13160625 1.225 -1.838859375 2.205 -1.27305625 0.45481875 0.262590625 0.735 0.747875 0.735 1.27305625 0 1.13160625 -1.225 1.838859375 -2.205 1.27305625 -0.45481875 -0.2625875 -0.735 -0.747875 -0.735 -1.27305625Z" fill="#000000" stroke-width="0.0313"></path>
</svg>