<svg viewBox="0 0 16 16" fill="#000000" xmlns="http://www.w3.org/2000/svg" id="Handbag-Fill--Streamline-Remix-Fill" height="16" width="16">
  <desc>
    Handbag Fill Streamline Icon: https://streamlinehq.com
  </desc>
  <path d="M8.000133333333332 1.3333333333333333c2.5773333333333333 0 4.666666666666666 2.08934 4.666666666666666 4.666666666666666h0.716c0.3483333333333333 0 0.6379333333333332 0.26820666666666665 0.6646666666666666 0.6155333333333333l0.5641333333333333 7.333333333333333c0.028199999999999996 0.3671333333333333 -0.24646666666666664 0.6876 -0.6135999999999999 0.7158666666666667L13.946866666666667 14.666666666666666H2.0533866666666665c-0.36819333333333326 0 -0.6666666666666666 -0.29846666666666666 -0.6666666666666666 -0.6666666666666666l0.00196 -0.051133333333333336 0.5641066666666666 -7.333333333333333C1.9795 6.268206666666666 2.2691333333333334 6 2.6174866666666663 6H3.333466666666667c0 -2.5773266666666665 2.08934 -4.666666666666666 4.666666666666666 -4.666666666666666Zm1.3333333333333333 7.333333333333333h-2.6666666666666665v1.3333333333333333h2.6666666666666665v-1.3333333333333333Zm-1.3333333333333333 -6C6.207633333333334 2.6666666666666665 4.745586666666666 4.0815399999999995 4.669879999999999 5.855406666666667L4.6668 6h6.666666666666666c0 -1.7925066666666665 -1.4148666666666667 -3.2545466666666667 -3.1887333333333334 -3.3302533333333333L8.000133333333332 2.6666666666666665Z" stroke-width="0.6667"></path>
</svg>