<svg viewBox="0 0 24 24" fill="none" xmlns="http://www.w3.org/2000/svg" id="Perfume--Streamline-Solar-Ar" height="24" width="24">
  <desc>
    Perfume Streamline Icon: https://streamlinehq.com
  </desc>
  <path d="M7 5.42168V5c0 -1.41421 0 -2.12132 0.43934 -2.56066C7.87868 2 8.58579 2 10 2c1.4142 0 2.1213 0 2.5607 0.43934C13 2.87868 13 3.58579 13 5v2H7V5.5" stroke="#000000" stroke-linecap="round" stroke-linejoin="round" stroke-width="1.5"></path>
  <path d="M13 7H7" stroke="#000000" stroke-linecap="round" stroke-linejoin="round" stroke-width="1.5"></path>
  <path d="M7 5.00021c0.55228 0 1 0.05207 1 -0.50021s-0.44772 -0.49965 -1 -0.49965" stroke="#000000" stroke-width="1.5"></path>
  <path d="M10 7c-4.41828 0 -8 3.3556 -8 7.495 0 1.9148 0.76642 3.6619 2.02754 4.9867 0.45011 0.4729 0.67516 0.7093 1.6187 1.1138C6.58979 21 7.24039 21 8.5416 21h2.9168c1.3012 0 1.9518 0 2.8954 -0.4045 0.9435 -0.4045 1.1686 -0.6409 1.6187 -1.1138C17.2336 18.1569 18 16.4098 18 14.495 18 10.3556 14.4183 7 10 7Z" stroke="#000000" stroke-width="1.5"></path>
  <path d="M2.5 13c1.43501 0.5805 3.14292 1.7308 5.36069 1.9805 2.99531 0.3373 4.56371 -2.1568 7.53721 -1.6629 1.0481 0.1741 2.0253 0.4745 2.6021 0.7944" stroke="#000000" stroke-linecap="round" stroke-width="1.5"></path>
  <path d="M13.5 5h0.8197c0.7762 0 1.5418 0.18073 2.236 0.52786L17.5 6" stroke="#000000" stroke-width="1.5"></path>
  <path d="M20.5 5.24977c1.1958 0.69035 1.7174 2.02546 1.1651 2.98205 -0.5523 0.95658 -1.9693 1.1724 -3.1651 0.48205 -1.1957 -0.69036 -1.7173 -2.02547 -1.165 -2.98205 0.5522 -0.95659 1.9693 -1.17241 3.165 -0.48205Z" stroke="#000000" stroke-width="1.5"></path>
</svg>