<svg xmlns="http://www.w3.org/2000/svg" fill="none" viewBox="0 0 24 24" height="24" width="24">
  <g id="restaurant-fill">
    <path id="Union" fill="#000000" d="M11 2c0.5523 0 1 0.44772 1 1v4.5c0 2.14145 -1.4962 3.9318 -3.5 4.3867V21c0 0.5523 -0.44772 1 -1 1s-1 -0.4477 -1 -1v-9.1133C4.4962 11.4318 3 9.64145 3 7.5V3c0 -0.55228 0.44772 -1 1 -1s1 0.44772 1 1v4.5c0 1.02488 0.61743 1.9041 1.5 2.29004V3c0 -0.55228 0.44772 -1 1 -1s1 0.44772 1 1v6.79004C9.38257 9.4041 10 8.52488 10 7.5V3c0 -0.55228 0.4477 -1 1 -1m5 0c2.7614 0 5 2.23858 5 5v7c0 1.1046 -0.8954 2 -2 2h-2v5c0 0.5523 -0.4477 1 -1 1s-1 -0.4477 -1 -1V3c0 -0.55228 0.4477 -1 1 -1" stroke-width="1"></path>
  </g>
</svg>