<svg xmlns="http://www.w3.org/2000/svg" viewBox="0 0 16 16" id="Wine-Bottle--Streamline-Font-Awesome" height="16" width="16">
  <desc>
    Wine Bottle Streamline Icon: https://streamlinehq.com
  </desc>
<!--! Font Awesome Free 6.5.2 by @fontawesome - https://fontawesome.com License - https://fontawesome.com/license/free (Icons: CC BY 4.0, Fonts: SIL OFL 1.1, Code: MIT License) Copyright 2024 Fonticons, Inc.-->
  <path d="M12.20575625 0.447096875c0.38279375 -0.38279375 1.00445 -0.38279375 1.38724375 0l1.95990625 1.959903125c0.38279375 0.38279375 0.38279375 1.00445 0 1.38724375 -0.361359375 0.361359375 -0.94014375 0.38279375 -1.3229375 0.058184375l-0.290921875 0.290925 -1.494428125 1.494425c-0.281734375 0.2817375 -0.35216875 0.701278125 -0.2633625 1.090196875 0.2878625 1.252503125 -0.058184375 2.621371875 -1.035075 3.5982625L6.2004875 15.265809375c-0.7655875 0.7655875 -2.005840625 0.7655875 -2.771428125 0l-2.69486875 -2.69486875c-0.7655875 -0.7655875 -0.7655875 -2.005840625 0 -2.771428125l4.942634375 -4.94569375c0.976890625 -0.976890625 2.345759375 -1.319875 3.5982625 -1.035075 0.38585625 0.088809375 0.808459375 0.0153125 1.087134375 -0.2633625l1.494425 -1.494428125 0.290925 -0.290921875c-0.324609375 -0.38585625 -0.306234375 -0.961578125 0.058184375 -1.322934375ZM3.199384375 10.794778125l2.002775 2.002778125c0.189865625 0.189865625 0.502225 0.189865625 0.692090625 0l2.98273125 -2.98273125c0.189865625 -0.189865625 0.189865625 -0.502225 0 -0.692090625l-2.002778125 -2.002778125c-0.189865625 -0.189865625 -0.502225 -0.189865625 -0.692090625 0l-2.982728125 2.98273125c-0.189865625 0.189865625 -0.189865625 0.502225 0 0.692090625Z" fill="#000000" stroke-width="0.0313"></path>
</svg>